<?xml version="1.0" standalone="no"?>
<!DOCTYPE svg PUBLIC "-//W3C//DTD SVG 20010904//EN"
 "http://www.w3.org/TR/2001/REC-SVG-20010904/DTD/svg10.dtd">
<svg version="1.0" xmlns="http://www.w3.org/2000/svg"
 width="256.000000pt" height="256.000000pt" viewBox="0 0 256.000000 256.000000"
 preserveAspectRatio="xMidYMid meet">
<metadata>
Created by potrace 1.14, written by Peter Selinger 2001-2017
</metadata>
<g transform="translate(0.000000,256.000000) scale(0.100000,-0.100000)"
fill="#000000" stroke="none">
<path d="M1075 2544 c-92 -19 -101 -21 -160 -38 -73 -21 -149 -50 -156 -59 -3
-5 -10 -9 -15 -9 -29 -2 -162 -80 -244 -143 -261 -202 -431 -490 -488 -828
-14 -84 -6 -389 12 -437 5 -15 13 -47 23 -103 3 -15 9 -30 14 -33 5 -3 9 -14
9 -25 0 -29 90 -216 140 -290 207 -308 521 -510 875 -563 92 -13 327 -16 380
-3 11 2 36 7 55 11 19 3 45 8 58 10 12 3 63 19 113 36 330 112 598 351 744
663 56 120 79 194 111 352 3 17 7 93 9 170 4 139 -13 272 -46 380 -7 22 -13
42 -14 45 -11 52 -86 210 -139 293 -114 177 -297 344 -484 440 -85 44 -213 94
-261 103 -14 3 -28 7 -32 9 -4 3 -24 7 -45 11 -22 3 -50 8 -64 11 -58 12 -327
10 -395 -3z"/>
</g>
</svg>
